<svg xmlns="http://www.w3.org/2000/svg" viewBox="0 0 64 64">
  <circle cx="32" cy="32" r="32" fill="#f7931a"/>
  <path fill="#fff" d="M46.1 27.4c.6-4.1-2.5-6.3-6.8-7.8l1.4-5.6-3.4-.8-1.4 5.4c-.9-.2-1.8-.4-2.7-.7l1.4-5.5-3.4-.8-1.4 5.6c-.7-.2-1.5-.4-2.2-.5l0 0-4.7-1.2-.9 3.6s2.5.6 2.5.6c1.4.3 1.6 1.2 1.6 1.9l-1.6 6.3c.1 0 .2 0 .3.1-.1 0-.2-.1-.3-.1l-2.2 9c-.2.4-.6 1.1-1.6.8 0 0-2.5-.6-2.5-.6l-1.7 3.9 4.4 1.1c.8.2 1.6.4 2.4.6l-1.4 5.7 3.4.8 1.4-5.6c.9.3 1.8.5 2.7.7l-1.4 5.6 3.4.8 1.4-5.7c5.8 1.1 10.2.7 12-4.6 1.5-4.2-.1-6.7-3.1-8.3 2.2-.5 3.9-2 4.3-5zm-7.7 10.8c-1.1 4.2-8.2 1.9-10.5 1.4l1.9-7.5c2.3.6 9.7 1.7 8.6 6.1zm1-10.9c-1 3.9-6.9 1.9-8.8 1.4l1.7-6.8c1.9.5 8.1 1.4 7.1 5.4z"/>
</svg>
